<svg xmlns:xlink="http://www.w3.org/1999/xlink" xmlns="http://www.w3.org/2000/svg" viewBox="0 0 350 112.42339181041982" preserveAspectRatio="xMidYMid meet" class="css-88gl6m" id="bfdahcah" width="350"  height="112.42339181041982" ><defs id="SvgjsDefs1119"></defs><g id="SvgjsG1120" featurekey="nameFeature-0" transform="matrix(2.2911544991036195,0,0,2.2911544991036195,-0.6658598935041071,-36.566825893094375)" fill="#111111"><path d="M2.76 40.48 c-2.08 0.16 -3 -1.6 -2.16 -3.44 c0.8 -1.84 2.4 -2.56 3.24 -2.4 c0.76 0.12 1 0.76 0.68 1.68 c-0.48 1.24 -1.96 2.12 -3.4 2.6 c0.16 0.56 0.68 0.84 1.4 0.8 c1.84 -0.16 4.4 -1.44 11.64 -4.6 c0.52 -0.24 0.64 0.28 0.32 0.4 c-6.08 2.68 -9.52 4.8 -11.72 4.96 z M1.32 37.32 c-0.2 0.44 -0.28 0.8 -0.28 1.12 c1.16 -0.4 2.56 -1.52 2.88 -2.4 c0.12 -0.36 0.08 -0.72 -0.2 -0.8 c-0.44 -0.12 -1.72 0.4 -2.4 2.08 z M16.200000000000003 29.96 c-1.48 0.88 -2.12 1.96 -1.88 2.96 c0.2 0.8 0.88 2.28 1.48 4.08 c1.6 -1.28 3.08 -2.24 4.6 -2.92 c0.12 -0.08 0.6 -0.16 0.76 -0.12 c0.32 0.12 -0.08 0.28 -0.32 0.4 c-1.32 0.52 -3 1.8 -4.8 3.4 c0.48 1.6 0.88 3.36 0.88 5.2 c0 4.24 -3.56 6.8 -5.88 6.8 c-3.28 0 -3.44 -4.76 1.92 -10.12 c0.76 -0.76 1.48 -1.44 2.16 -2.04 c-0.52 -1.56 -1.16 -3.04 -1.44 -4.2 c-0.6 -2.2 0.84 -3.92 2.04 -4.04 c0.92 -0.12 0.88 0.4 0.48 0.6 z M16.200000000000003 42.44 c0 -1.32 -0.36 -2.72 -0.8 -4.08 l-1.72 1.68 c-4.84 4.88 -4.76 9.04 -3.04 9.04 c2.56 0 5.56 -2.96 5.56 -6.64 z M27.64 36.16 c-0.88 0 -3.52 2 -6.36 7.28 c-0.72 2.44 -1.4 4.6 -1.84 5.84 c-1 2.88 -1.4 3.84 -1.68 3.84 c-0.24 0.04 -0.52 -0.2 -0.56 -0.48 c0 -0.2 0.6 -3.32 2.52 -7.52 c0.32 -0.76 0.68 -1.48 1.04 -2.16 c0.88 -2.96 1.56 -6.32 2.28 -10.48 c0.08 -0.56 0.84 -0.32 0.76 0.28 c-0.36 2.4 -1 5.28 -1.76 8 c2.12 -3.28 4.24 -5.2 5.68 -5.2 c0.52 0 1.32 0.72 1.32 2.16 c0 0.2 -0.04 0.4 -0.04 0.6 c2.88 -1.4 6.16 -2.72 8.64 -3.4 c0.48 -0.12 0.96 0.28 0.44 0.4 c-2.48 0.68 -6.2 2.24 -9.28 3.84 c-0.32 1.08 -0.96 2.16 -1.72 2.96 c-2.2 2.2 -4.48 1.96 -4.48 0.88 c0 -0.96 2.28 -2.56 5.28 -4.12 c0.12 -0.48 0.2 -0.92 0.24 -1.36 c0.04 -0.84 -0.16 -1.36 -0.48 -1.36 z M26.320000000000004 41.52 c0.52 -0.48 0.92 -1.08 1.2 -1.72 c-2.32 1.24 -4 2.4 -4 2.96 c0 0.4 0.92 0.6 2.8 -1.24 z M41.52 40.2 c2.8 0 10.92 -3.76 13.36 -5.08 c0.2 -0.12 1.04 -0.08 0.36 0.36 c-2.64 1.72 -11.12 5.56 -13.76 5.56 c-1.96 0 -2.52 -1.16 -2.52 -2 s0.16 -1.24 0.08 -1.32 c-0.12 -0.12 -0.36 -0.08 -1.64 0.6 c-1.16 0.68 -2.44 1.2 -2.84 1.2 c-0.56 0 -0.96 -0.36 -0.96 -0.6 c0 -0.76 0.48 -1.8 2 -2.92 c1.28 -1 2.08 -1.2 2.76 -1.2 c0.92 0 1.48 1.44 1.08 1.44 s-0.52 -0.8 -0.96 -0.8 c-0.4 0 -1.2 0.32 -2.32 1.08 c-1.04 0.68 -1.84 1.84 -1.84 2.16 c0 0.08 0.04 0.12 0.16 0.12 c0.36 0 1.04 -0.28 2.16 -0.84 c1.52 -0.72 2.52 -1.28 3 -1.28 c0.16 0 0.52 0.08 0.52 0.36 c0 0.32 -0.4 1.04 -0.4 1.96 c0 0.68 0.72 1.2 1.76 1.2 z M67.44 34.96 c0.2 0 0.36 0.4 0.16 0.48 c-0.48 0.12 -2.4 1.2 -7 2.76 c-3.64 1.24 -4.56 1.44 -5.2 1.44 c-1.04 0 -1.36 -0.72 -1.36 -1.36 c0 -0.6 0.16 -1.64 0.4 -2.32 c0.16 -0.56 0.36 -0.88 1.04 -1 c0.2 -0.04 0.44 0.2 0.2 0.64 c-0.6 1.24 -0.72 2 -0.8 2.64 c-0.04 0.48 0.16 0.72 0.36 0.72 c0.52 0 1.64 -0.12 5.04 -1.32 c3.92 -1.4 6.92 -2.68 7.16 -2.68 z M56.28 32.12 c-0.2 -0.08 -0.36 -0.76 -0.28 -1.04 c0.08 -0.24 0.4 -0.68 0.64 -0.64 c0.36 0.08 0.6 0.56 0.52 0.92 c-0.12 0.36 -0.64 0.8 -0.88 0.76 z M87.28 42.08 c-1.04 0 -0.96 -1 -0.48 -3.72 c0.52 -2.88 0.6 -3.24 0.4 -3.32 c-0.28 -0.16 -1.68 1.24 -2.72 2.52 c-1.28 1.56 -1.88 1.96 -2.36 1.88 c-0.44 -0.08 -0.56 -0.56 -0.04 -3.36 c0.44 -2.2 0.52 -3.48 0.2 -3.68 c-0.44 -0.24 -0.96 0.16 -3.16 3.68 c-2.4 3.96 -2.92 5.76 -3.56 5.76 c-0.36 0 -0.48 -0.32 -0.4 -0.88 c0.36 -2.16 0.52 -4.52 0.56 -5.4 c0.04 -0.8 1.12 -0.8 1.04 0.08 c-0.12 0.92 -0.52 2.8 -0.72 3.92 c-0.08 0.6 0.8 -1.04 2.44 -3.8 c2.04 -3.36 3 -4.36 3.88 -4.2 c1.16 0.24 0.88 1.92 0.4 4.56 l-0.36 1.96 c-0.12 0.64 0.12 0.8 0.64 0.16 c0.24 -0.24 0.56 -0.56 0.84 -0.92 c1.48 -1.8 2.92 -3.24 3.56 -3.24 c0.44 0 0.68 0.44 0.68 0.88 s-0.16 1.6 -0.56 3.44 c-0.52 2.4 -0.48 3 -0.12 3 c1.88 0 7.04 -3.04 12.36 -6.28 c0.2 -0.12 0.96 0.12 0.32 0.52 c-3.68 2.4 -10.2 6.44 -12.84 6.44 z M112.19999999999999 34.96 c0.2 0 0.36 0.4 0.16 0.48 c-0.48 0.12 -2.4 1.2 -7 2.76 c-3.64 1.24 -4.56 1.44 -5.2 1.44 c-1.04 0 -1.36 -0.72 -1.36 -1.36 c0 -0.6 0.16 -1.64 0.4 -2.32 c0.16 -0.56 0.36 -0.88 1.04 -1 c0.2 -0.04 0.44 0.2 0.2 0.64 c-0.6 1.24 -0.72 2 -0.8 2.64 c-0.04 0.48 0.16 0.72 0.36 0.72 c0.52 0 1.64 -0.12 5.04 -1.32 c3.92 -1.4 6.92 -2.68 7.16 -2.68 z M101.03999999999999 32.12 c-0.2 -0.08 -0.36 -0.76 -0.28 -1.04 c0.08 -0.24 0.4 -0.68 0.64 -0.64 c0.36 0.08 0.6 0.56 0.52 0.92 c-0.12 0.36 -0.64 0.8 -0.88 0.76 z M113.39999999999999 41.24 c-0.88 -0.12 -1.48 -1.04 -0.52 -3.04 c0.4 -0.88 0.68 -1.4 0.68 -1.6 c0 -0.16 -0.12 -0.28 -0.96 -0.6 c-1.08 -0.4 -1.24 -1.44 -1.04 -2.24 c0.36 -1.44 1.52 -1.88 2.12 -1.76 c0.32 0.08 0.76 0.52 0.72 0.84 c-0.12 1.04 -0.76 1.72 -1.84 2.32 c0.08 0.08 0.2 0.16 0.36 0.2 c1.48 0.6 1.68 0.72 1.68 1.08 c0 0.32 -0.44 0.96 -0.96 2.08 c-0.6 1.24 -0.64 1.76 0.04 1.84 c2.24 0.28 7.96 -1.52 12.16 -5.12 c0.4 -0.36 0.88 -0.08 0.52 0.24 c-4.24 4.04 -10.92 6.04 -12.96 5.76 z M112.35999999999999 33.96 c-0.08 0.24 -0.12 0.48 -0.04 0.72 c1.16 -0.72 1.44 -1.32 1.48 -1.88 c0 -0.08 0 -0.12 -0.08 -0.16 c-0.4 -0.12 -1.16 0.68 -1.36 1.32 z M130.56 40.2 c2.8 0 10.92 -3.76 13.36 -5.08 c0.2 -0.12 1.04 -0.08 0.36 0.36 c-2.64 1.72 -11.12 5.56 -13.76 5.56 c-1.96 0 -2.52 -1.16 -2.52 -2 s0.16 -1.24 0.08 -1.32 c-0.12 -0.12 -0.36 -0.08 -1.64 0.6 c-1.16 0.68 -2.44 1.2 -2.84 1.2 c-0.56 0 -0.96 -0.36 -0.96 -0.6 c0 -0.76 0.48 -1.8 2 -2.92 c1.28 -1 2.08 -1.2 2.76 -1.2 c0.92 0 1.48 1.44 1.08 1.44 s-0.52 -0.8 -0.96 -0.8 c-0.4 0 -1.2 0.32 -2.32 1.08 c-1.04 0.68 -1.84 1.84 -1.84 2.16 c0 0.08 0.04 0.12 0.16 0.12 c0.36 0 1.04 -0.28 2.16 -0.84 c1.52 -0.72 2.52 -1.28 3 -1.28 c0.16 0 0.52 0.08 0.52 0.36 c0 0.32 -0.4 1.04 -0.4 1.96 c0 0.68 0.72 1.2 1.76 1.2 z M141.64 50 c-0.52 0.04 -0.92 -1.48 -0.68 -4.48 c0.48 -7.08 1.64 -13.2 2.92 -18.76 c1.96 -8.64 2.96 -10.8 3.6 -10.8 c0.36 0 0.44 0.96 0.32 1.32 c-0.12 0.48 -0.64 1.32 -1.08 2.28 c-0.08 0.2 -1.16 4.16 -1.92 7.72 c-0.64 3 -2.4 11.2 -3.08 18.56 c-0.32 3.68 0.32 4.12 -0.08 4.16 z M146.83999999999997 50 c-0.52 0.04 -0.92 -1.48 -0.68 -4.48 c0.48 -7.08 1.64 -13.2 2.92 -18.76 c1.96 -8.64 2.96 -10.8 3.6 -10.8 c0.36 0 0.44 0.96 0.32 1.32 c-0.12 0.48 -0.64 1.32 -1.08 2.28 c-0.08 0.2 -1.16 4.16 -1.92 7.72 c-0.64 3 -2.4 11.2 -3.08 18.56 c-0.32 3.68 0.32 4.12 -0.08 4.16 z" fill="#111111"></path></g><g id="SvgjsG1121" featurekey="sloganFeature-0" transform="matrix(1.4211575436494828,0,0,1.4211575436494828,31.532375512175975,84.65397481704322)" fill="#111111"><path d="M2.44 15.86 l0 -7.86 c0 -0.42 0.34 -0.64 0.66 -0.64 c0.34 0 0.66 0.22 0.66 0.64 l0 7.86 c0 1.44 0.98 2.3 2.34 2.3 l0.5 0 c1.4 0 2.36 -0.98 2.36 -2.3 l0 -7.86 c0 -0.42 0.32 -0.64 0.66 -0.64 c0.32 0 0.66 0.22 0.66 0.64 l0 7.86 c0 2.06 -1.46 3.64 -3.68 3.64 l-0.5 0 c-2.22 0 -3.66 -1.54 -3.66 -3.64 z M24.5415 8 l0 10.76 c0 0.42 -0.32 0.64 -0.64 0.64 c-0.24 0 -0.56 -0.18 -0.7 -0.44 c-1.5 -2.94 -2.62 -5.2 -4.12 -8.16 l0 7.96 c0 0.42 -0.32 0.64 -0.66 0.64 c-0.32 0 -0.66 -0.22 -0.66 -0.64 l0 -10.76 c0 -0.7 1 -0.74 1.22 -0.32 l4.22 8.34 l0 -8.02 c0 -0.42 0.32 -0.64 0.66 -0.64 s0.68 0.22 0.68 0.64 z M42.3245 18.7 l0 -10.64 c0 -0.46 0.36 -0.7 0.7 -0.7 l4.6 0 c0.44 0 0.66 0.32 0.66 0.66 s-0.22 0.68 -0.66 0.68 l-3.96 0 l0 3.88 l3.14 0 c0.46 0 0.68 0.32 0.68 0.66 s-0.24 0.7 -0.68 0.7 l-3.14 0 l0 4.14 l3.96 0 c0.42 0 0.64 0.34 0.64 0.66 c0 0.34 -0.22 0.66 -0.64 0.66 l-4.6 0 c-0.34 0 -0.7 -0.12 -0.7 -0.7 z M55.226 17.68 c-0.44 -0.82 0.68 -1.42 1.2 -0.6 c0.26 0.42 1.04 1.14 2.28 1.14 c0.52 0 1.82 -0.38 2 -1.86 c0.12 -0.9 -0.74 -1.78 -2.22 -2.52 c-2.08 -0.98 -3.66 -1.84 -3.66 -3.56 c0 -2.04 1.72 -3 3.56 -3 c1.66 0 2.58 1.02 2.9 1.54 c0.46 0.74 -0.54 1.46 -1.1 0.74 c-0.28 -0.36 -0.82 -0.96 -1.8 -0.96 c-1.1 0 -2.24 0.52 -2.24 1.68 c0 0.92 1.02 1.44 2.54 2.16 c1.78 0.88 3.64 1.74 3.36 4.08 c-0.22 1.84 -1.62 3.02 -3.34 3.02 c-1.3 0 -2.9 -0.7 -3.48 -1.86 z M75.6675 10.28 l0 2.5 c0 2.38 -1.24 3.14 -3.34 3.14 l-1.86 0 l0 2.84 c0 0.42 -0.34 0.64 -0.66 0.64 c-0.34 0 -0.66 -0.22 -0.66 -0.64 l0 -10.74 c0 -0.38 0.32 -0.66 0.66 -0.66 l2.7 0 c1.1 0 3.16 0.22 3.16 2.92 z M72.50750000000001 8.7 l-2.04 0 l0 5.86 l1.86 0 c0.98 0 2.04 -0.24 2.02 -1.8 l-0.02 -2.48 c0 -0.48 -0.08 -1.58 -1.82 -1.58 z M88.28900000000002 18.86 l-0.78 -2.54 l-3.72 0 l-0.74 2.5 c-0.26 0.86 -1.58 0.6 -1.3 -0.28 c1.04 -3.5 2.06 -7.06 3.08 -10.6 c0.12 -0.38 0.44 -0.58 0.76 -0.58 c0.3 0 0.62 0.2 0.74 0.58 l3.18 10.6 c0.22 0.76 -0.96 1.18 -1.22 0.32 z M85.629 10.06 l-1.44 4.92 l2.94 0 c-0.5 -1.68 -0.96 -3.12 -1.5 -4.92 z M96.57050000000001 18.78 l0 -10.78 c0 -0.42 0.32 -0.64 0.64 -0.64 s0.66 0.22 0.66 0.64 l0 10.78 c0 0.86 -1.3 0.86 -1.3 0 z M122.1335 10.28 l0 2.5 c0 2.38 -1.24 3.14 -3.34 3.14 l-1.86 0 l0 2.84 c0 0.42 -0.34 0.64 -0.66 0.64 c-0.34 0 -0.66 -0.22 -0.66 -0.64 l0 -10.74 c0 -0.38 0.32 -0.66 0.66 -0.66 l2.7 0 c1.1 0 3.16 0.22 3.16 2.92 z M118.9735 8.7 l-2.04 0 l0 5.86 l1.86 0 c0.98 0 2.04 -0.24 2.02 -1.8 l-0.02 -2.48 c0 -0.48 -0.08 -1.58 -1.82 -1.58 z M128.85500000000002 18.7 l0 -10.64 c0 -0.46 0.36 -0.7 0.7 -0.7 l4.6 0 c0.44 0 0.66 0.32 0.66 0.66 s-0.22 0.68 -0.66 0.68 l-3.96 0 l0 3.88 l3.14 0 c0.46 0 0.68 0.32 0.68 0.66 s-0.24 0.7 -0.68 0.7 l-3.14 0 l0 4.14 l3.96 0 c0.42 0 0.64 0.34 0.64 0.66 c0 0.34 -0.22 0.66 -0.64 0.66 l-4.6 0 c-0.34 0 -0.7 -0.12 -0.7 -0.7 z M143.3765 15.9 l0 2.86 c0 0.44 -0.34 0.64 -0.66 0.64 c-0.34 0 -0.66 -0.2 -0.66 -0.64 l0 -10.74 c0 -0.4 0.22 -0.66 0.66 -0.66 l2.7 0 c0.76 0 3.16 0.22 3.16 2.92 l0 2.5 c0 1.52 -0.56 2.48 -1.84 2.9 l1.36 2.74 c0.28 0.54 -0.14 0.98 -0.58 0.98 c-0.24 0 -0.54 -0.16 -0.7 -0.5 l-1.46 -3 l-1.98 0 z M147.2565 12.780000000000001 l0 -2.5 c0 -0.48 -0.18 -1.58 -1.84 -1.58 l-2.04 0 l0 5.86 l1.86 0 c0.98 0 2.02 -0.22 2.02 -1.78 z M165.87949999999998 17.68 c-0.44 -0.82 0.68 -1.42 1.2 -0.6 c0.26 0.42 1.04 1.14 2.28 1.14 c0.52 0 1.82 -0.38 2 -1.86 c0.12 -0.9 -0.74 -1.78 -2.22 -2.52 c-2.08 -0.98 -3.66 -1.84 -3.66 -3.56 c0 -2.04 1.72 -3 3.56 -3 c1.66 0 2.58 1.02 2.9 1.54 c0.46 0.74 -0.54 1.46 -1.1 0.74 c-0.28 -0.36 -0.82 -0.96 -1.8 -0.96 c-1.1 0 -2.24 0.52 -2.24 1.68 c0 0.92 1.02 1.44 2.54 2.16 c1.78 0.88 3.64 1.74 3.36 4.08 c-0.22 1.84 -1.62 3.02 -3.34 3.02 c-1.3 0 -2.9 -0.7 -3.48 -1.86 z M179.74099999999999 18.7 l0 -10.64 c0 -0.46 0.36 -0.7 0.7 -0.7 l4.6 0 c0.44 0 0.66 0.32 0.66 0.66 s-0.22 0.68 -0.66 0.68 l-3.96 0 l0 3.88 l3.14 0 c0.46 0 0.68 0.32 0.68 0.66 s-0.24 0.7 -0.68 0.7 l-3.14 0 l0 4.14 l3.96 0 c0.42 0 0.64 0.34 0.64 0.66 c0 0.34 -0.22 0.66 -0.64 0.66 l-4.6 0 c-0.34 0 -0.7 -0.12 -0.7 -0.7 z M194.2625 15.9 l0 2.86 c0 0.44 -0.34 0.64 -0.66 0.64 c-0.34 0 -0.66 -0.2 -0.66 -0.64 l0 -10.74 c0 -0.4 0.22 -0.66 0.66 -0.66 l2.7 0 c0.76 0 3.16 0.22 3.16 2.92 l0 2.5 c0 1.52 -0.56 2.48 -1.84 2.9 l1.36 2.74 c0.28 0.54 -0.14 0.98 -0.58 0.98 c-0.24 0 -0.54 -0.16 -0.7 -0.5 l-1.46 -3 l-1.98 0 z M198.14249999999998 12.780000000000001 l0 -2.5 c0 -0.48 -0.18 -1.58 -1.84 -1.58 l-2.04 0 l0 5.86 l1.86 0 c0.98 0 2.02 -0.22 2.02 -1.78 z" fill="#111111"></path></g></svg>